<mxfile host="app.diagrams.net" modified="2022-12-27T07:34:08.728Z" agent="5.0 (Windows NT 10.0; Win64; x64) AppleWebKit/537.36 (KHTML, like Gecko) Chrome/108.0.0.0 Safari/537.36 Edg/108.0.1462.54" version="20.7.4" etag="hCJPJb99yYVNvvNV0vAl" type="github">
  <diagram id="PbEQ039e5MZ8Hlv1BQLl" name="第 1 页">
    <mxGraphModel dx="1004" dy="549" grid="1" gridSize="10" guides="1" tooltips="1" connect="1" arrows="1" fold="1" page="1" pageScale="1" pageWidth="827" pageHeight="1169" math="0" shadow="0">
      <root>
        <mxCell id="0" />
        <mxCell id="1" parent="0" />
        <mxCell id="ydk9H1n4P7CN5_Hp086h-1" value="" style="edgeStyle=orthogonalEdgeStyle;rounded=0;orthogonalLoop=1;jettySize=auto;html=1;" edge="1" parent="1" source="ydk9H1n4P7CN5_Hp086h-2" target="ydk9H1n4P7CN5_Hp086h-7">
          <mxGeometry relative="1" as="geometry" />
        </mxCell>
        <mxCell id="ydk9H1n4P7CN5_Hp086h-2" value="插件中心" style="rounded=0;whiteSpace=wrap;html=1;" vertex="1" parent="1">
          <mxGeometry x="130" y="240" width="120" height="60" as="geometry" />
        </mxCell>
        <mxCell id="ydk9H1n4P7CN5_Hp086h-3" value="" style="edgeStyle=orthogonalEdgeStyle;rounded=0;orthogonalLoop=1;jettySize=auto;html=1;entryX=0;entryY=0.5;entryDx=0;entryDy=0;" edge="1" parent="1" source="ydk9H1n4P7CN5_Hp086h-7" target="ydk9H1n4P7CN5_Hp086h-8">
          <mxGeometry relative="1" as="geometry" />
        </mxCell>
        <mxCell id="ydk9H1n4P7CN5_Hp086h-4" style="edgeStyle=orthogonalEdgeStyle;rounded=0;orthogonalLoop=1;jettySize=auto;html=1;exitX=1;exitY=0.5;exitDx=0;exitDy=0;" edge="1" parent="1" source="ydk9H1n4P7CN5_Hp086h-7" target="ydk9H1n4P7CN5_Hp086h-9">
          <mxGeometry relative="1" as="geometry" />
        </mxCell>
        <mxCell id="ydk9H1n4P7CN5_Hp086h-5" style="edgeStyle=orthogonalEdgeStyle;rounded=0;orthogonalLoop=1;jettySize=auto;html=1;exitX=1;exitY=0.5;exitDx=0;exitDy=0;entryX=0;entryY=0.5;entryDx=0;entryDy=0;" edge="1" parent="1" source="ydk9H1n4P7CN5_Hp086h-7" target="ydk9H1n4P7CN5_Hp086h-10">
          <mxGeometry relative="1" as="geometry" />
        </mxCell>
        <mxCell id="ydk9H1n4P7CN5_Hp086h-6" value="" style="edgeStyle=orthogonalEdgeStyle;rounded=0;orthogonalLoop=1;jettySize=auto;html=1;" edge="1" parent="1" source="ydk9H1n4P7CN5_Hp086h-7" target="ydk9H1n4P7CN5_Hp086h-15">
          <mxGeometry relative="1" as="geometry" />
        </mxCell>
        <mxCell id="ydk9H1n4P7CN5_Hp086h-7" value="任务中心" style="rounded=0;whiteSpace=wrap;html=1;" vertex="1" parent="1">
          <mxGeometry x="430" y="240" width="120" height="60" as="geometry" />
        </mxCell>
        <mxCell id="ydk9H1n4P7CN5_Hp086h-8" value="任务管控" style="rounded=0;whiteSpace=wrap;html=1;" vertex="1" parent="1">
          <mxGeometry x="640" y="130" width="120" height="60" as="geometry" />
        </mxCell>
        <mxCell id="ydk9H1n4P7CN5_Hp086h-9" value="资源管控" style="rounded=0;whiteSpace=wrap;html=1;" vertex="1" parent="1">
          <mxGeometry x="640" y="240" width="120" height="60" as="geometry" />
        </mxCell>
        <mxCell id="ydk9H1n4P7CN5_Hp086h-10" value="动态扩容" style="rounded=0;whiteSpace=wrap;html=1;" vertex="1" parent="1">
          <mxGeometry x="640" y="340" width="120" height="60" as="geometry" />
        </mxCell>
        <mxCell id="ydk9H1n4P7CN5_Hp086h-11" value="调度" style="text;html=1;align=center;verticalAlign=middle;resizable=0;points=[];autosize=1;strokeColor=none;fillColor=none;" vertex="1" parent="1">
          <mxGeometry x="320" y="230" width="50" height="30" as="geometry" />
        </mxCell>
        <mxCell id="ydk9H1n4P7CN5_Hp086h-12" style="edgeStyle=orthogonalEdgeStyle;rounded=0;orthogonalLoop=1;jettySize=auto;html=1;exitX=0.5;exitY=1;exitDx=0;exitDy=0;" edge="1" parent="1" source="ydk9H1n4P7CN5_Hp086h-15" target="ydk9H1n4P7CN5_Hp086h-17">
          <mxGeometry relative="1" as="geometry" />
        </mxCell>
        <mxCell id="ydk9H1n4P7CN5_Hp086h-13" style="edgeStyle=orthogonalEdgeStyle;rounded=0;orthogonalLoop=1;jettySize=auto;html=1;exitX=0.5;exitY=1;exitDx=0;exitDy=0;" edge="1" parent="1" source="ydk9H1n4P7CN5_Hp086h-15" target="ydk9H1n4P7CN5_Hp086h-18">
          <mxGeometry relative="1" as="geometry" />
        </mxCell>
        <mxCell id="ydk9H1n4P7CN5_Hp086h-14" style="edgeStyle=orthogonalEdgeStyle;rounded=0;orthogonalLoop=1;jettySize=auto;html=1;exitX=0.5;exitY=1;exitDx=0;exitDy=0;" edge="1" parent="1" source="ydk9H1n4P7CN5_Hp086h-15" target="ydk9H1n4P7CN5_Hp086h-19">
          <mxGeometry relative="1" as="geometry" />
        </mxCell>
        <mxCell id="ydk9H1n4P7CN5_Hp086h-15" value="job GateWay" style="rounded=0;whiteSpace=wrap;html=1;" vertex="1" parent="1">
          <mxGeometry x="430" y="380" width="120" height="60" as="geometry" />
        </mxCell>
        <mxCell id="ydk9H1n4P7CN5_Hp086h-16" value="" style="edgeStyle=orthogonalEdgeStyle;rounded=0;orthogonalLoop=1;jettySize=auto;html=1;" edge="1" parent="1" source="ydk9H1n4P7CN5_Hp086h-17" target="ydk9H1n4P7CN5_Hp086h-23">
          <mxGeometry relative="1" as="geometry" />
        </mxCell>
        <mxCell id="ydk9H1n4P7CN5_Hp086h-17" value="job queue" style="rounded=0;whiteSpace=wrap;html=1;" vertex="1" parent="1">
          <mxGeometry x="285" y="525" width="120" height="60" as="geometry" />
        </mxCell>
        <mxCell id="ydk9H1n4P7CN5_Hp086h-18" value="job queue" style="rounded=0;whiteSpace=wrap;html=1;" vertex="1" parent="1">
          <mxGeometry x="430" y="525" width="120" height="60" as="geometry" />
        </mxCell>
        <mxCell id="ydk9H1n4P7CN5_Hp086h-19" value="job queue" style="rounded=0;whiteSpace=wrap;html=1;" vertex="1" parent="1">
          <mxGeometry x="590" y="525" width="120" height="60" as="geometry" />
        </mxCell>
        <mxCell id="ydk9H1n4P7CN5_Hp086h-20" style="edgeStyle=orthogonalEdgeStyle;rounded=0;orthogonalLoop=1;jettySize=auto;html=1;exitX=0.5;exitY=1;exitDx=0;exitDy=0;" edge="1" parent="1" source="ydk9H1n4P7CN5_Hp086h-23" target="ydk9H1n4P7CN5_Hp086h-24">
          <mxGeometry relative="1" as="geometry" />
        </mxCell>
        <mxCell id="ydk9H1n4P7CN5_Hp086h-21" style="edgeStyle=orthogonalEdgeStyle;rounded=0;orthogonalLoop=1;jettySize=auto;html=1;exitX=0.5;exitY=1;exitDx=0;exitDy=0;entryX=0.5;entryY=0;entryDx=0;entryDy=0;" edge="1" parent="1" source="ydk9H1n4P7CN5_Hp086h-23" target="ydk9H1n4P7CN5_Hp086h-25">
          <mxGeometry relative="1" as="geometry" />
        </mxCell>
        <mxCell id="ydk9H1n4P7CN5_Hp086h-22" style="edgeStyle=orthogonalEdgeStyle;rounded=0;orthogonalLoop=1;jettySize=auto;html=1;exitX=0.5;exitY=1;exitDx=0;exitDy=0;" edge="1" parent="1" source="ydk9H1n4P7CN5_Hp086h-23" target="ydk9H1n4P7CN5_Hp086h-26">
          <mxGeometry relative="1" as="geometry" />
        </mxCell>
        <mxCell id="ydk9H1n4P7CN5_Hp086h-23" value="job" style="rounded=0;whiteSpace=wrap;html=1;" vertex="1" parent="1">
          <mxGeometry x="285" y="665" width="120" height="60" as="geometry" />
        </mxCell>
        <mxCell id="ydk9H1n4P7CN5_Hp086h-24" value="开放Api&lt;br&gt;根据开关决定是否开启访问端口" style="rounded=0;whiteSpace=wrap;html=1;" vertex="1" parent="1">
          <mxGeometry x="140" y="790" width="120" height="60" as="geometry" />
        </mxCell>
        <mxCell id="ydk9H1n4P7CN5_Hp086h-25" value="回调" style="rounded=0;whiteSpace=wrap;html=1;" vertex="1" parent="1">
          <mxGeometry x="285" y="790" width="120" height="60" as="geometry" />
        </mxCell>
        <mxCell id="ydk9H1n4P7CN5_Hp086h-26" value="生命周期管理" style="rounded=0;whiteSpace=wrap;html=1;" vertex="1" parent="1">
          <mxGeometry x="440" y="790" width="120" height="60" as="geometry" />
        </mxCell>
        <mxCell id="ydk9H1n4P7CN5_Hp086h-27" value="使用NIO事件驱动模型" style="text;html=1;strokeColor=none;fillColor=none;align=center;verticalAlign=middle;whiteSpace=wrap;rounded=0;" vertex="1" parent="1">
          <mxGeometry x="60" y="430" width="60" height="30" as="geometry" />
        </mxCell>
      </root>
    </mxGraphModel>
  </diagram>
</mxfile>
